<mxfile host="app.diagrams.net" modified="2024-04-20T15:15:48.955Z" agent="Mozilla/5.0 (Windows NT 10.0; Win64; x64) AppleWebKit/537.36 (KHTML, like Gecko) Chrome/123.0.0.0 Safari/537.36 Edg/123.0.0.0" etag="hxrahvYXdoCXTFgyzZTu" version="24.2.5" type="github">
  <diagram name="第 1 页" id="nSO1w7hgdYzm0M3njHVF">
    <mxGraphModel dx="1167" dy="1291" grid="0" gridSize="10" guides="1" tooltips="1" connect="1" arrows="1" fold="1" page="0" pageScale="1" pageWidth="1169" pageHeight="827" math="0" shadow="0">
      <root>
        <mxCell id="0" />
        <mxCell id="1" parent="0" />
        <mxCell id="fM1xi27GiWtBx4axmUrS-5" value="" style="rounded=0;whiteSpace=wrap;html=1;sketch=1;hachureGap=4;jiggle=2;curveFitting=1;fontFamily=Architects Daughter;fontSource=https%3A%2F%2Ffonts.googleapis.com%2Fcss%3Ffamily%3DArchitects%2BDaughter;" vertex="1" parent="1">
          <mxGeometry x="144" y="-431" width="251" height="63" as="geometry" />
        </mxCell>
        <mxCell id="fM1xi27GiWtBx4axmUrS-6" value="" style="rounded=0;whiteSpace=wrap;html=1;sketch=1;hachureGap=4;jiggle=2;curveFitting=1;fontFamily=Architects Daughter;fontSource=https%3A%2F%2Ffonts.googleapis.com%2Fcss%3Ffamily%3DArchitects%2BDaughter;" vertex="1" parent="1">
          <mxGeometry x="208" y="-314" width="120" height="60" as="geometry" />
        </mxCell>
        <mxCell id="fM1xi27GiWtBx4axmUrS-7" value="" style="rounded=0;whiteSpace=wrap;html=1;sketch=1;hachureGap=4;jiggle=2;curveFitting=1;fontFamily=Architects Daughter;fontSource=https%3A%2F%2Ffonts.googleapis.com%2Fcss%3Ffamily%3DArchitects%2BDaughter;" vertex="1" parent="1">
          <mxGeometry x="213" y="-202" width="120" height="60" as="geometry" />
        </mxCell>
        <mxCell id="fM1xi27GiWtBx4axmUrS-8" value="" style="rounded=0;whiteSpace=wrap;html=1;sketch=1;hachureGap=4;jiggle=2;curveFitting=1;fontFamily=Architects Daughter;fontSource=https%3A%2F%2Ffonts.googleapis.com%2Fcss%3Ffamily%3DArchitects%2BDaughter;" vertex="1" parent="1">
          <mxGeometry x="686" y="-331" width="120" height="60" as="geometry" />
        </mxCell>
        <mxCell id="fM1xi27GiWtBx4axmUrS-9" value="" style="rounded=0;whiteSpace=wrap;html=1;sketch=1;hachureGap=4;jiggle=2;curveFitting=1;fontFamily=Architects Daughter;fontSource=https%3A%2F%2Ffonts.googleapis.com%2Fcss%3Ffamily%3DArchitects%2BDaughter;" vertex="1" parent="1">
          <mxGeometry x="209.5" y="-86" width="120" height="60" as="geometry" />
        </mxCell>
        <mxCell id="fM1xi27GiWtBx4axmUrS-10" value="" style="rounded=0;whiteSpace=wrap;html=1;sketch=1;hachureGap=4;jiggle=2;curveFitting=1;fontFamily=Architects Daughter;fontSource=https%3A%2F%2Ffonts.googleapis.com%2Fcss%3Ffamily%3DArchitects%2BDaughter;" vertex="1" parent="1">
          <mxGeometry x="694" y="-174" width="120" height="60" as="geometry" />
        </mxCell>
        <mxCell id="fM1xi27GiWtBx4axmUrS-11" value="" style="rounded=0;whiteSpace=wrap;html=1;sketch=1;hachureGap=4;jiggle=2;curveFitting=1;fontFamily=Architects Daughter;fontSource=https%3A%2F%2Ffonts.googleapis.com%2Fcss%3Ffamily%3DArchitects%2BDaughter;" vertex="1" parent="1">
          <mxGeometry x="104" y="22" width="210" height="163" as="geometry" />
        </mxCell>
        <mxCell id="fM1xi27GiWtBx4axmUrS-12" value="" style="rounded=0;whiteSpace=wrap;html=1;sketch=1;hachureGap=4;jiggle=2;curveFitting=1;fontFamily=Architects Daughter;fontSource=https%3A%2F%2Ffonts.googleapis.com%2Fcss%3Ffamily%3DArchitects%2BDaughter;" vertex="1" parent="1">
          <mxGeometry x="549" y="27" width="120" height="60" as="geometry" />
        </mxCell>
        <mxCell id="fM1xi27GiWtBx4axmUrS-13" value="" style="rounded=0;whiteSpace=wrap;html=1;sketch=1;hachureGap=4;jiggle=2;curveFitting=1;fontFamily=Architects Daughter;fontSource=https%3A%2F%2Ffonts.googleapis.com%2Fcss%3Ffamily%3DArchitects%2BDaughter;" vertex="1" parent="1">
          <mxGeometry x="945" y="31" width="120" height="60" as="geometry" />
        </mxCell>
        <mxCell id="fM1xi27GiWtBx4axmUrS-14" value="" style="endArrow=classic;html=1;rounded=0;sketch=1;hachureGap=4;jiggle=2;curveFitting=1;fontFamily=Architects Daughter;fontSource=https%3A%2F%2Ffonts.googleapis.com%2Fcss%3Ffamily%3DArchitects%2BDaughter;" edge="1" parent="1">
          <mxGeometry relative="1" as="geometry">
            <mxPoint x="44" y="-403" as="sourcePoint" />
            <mxPoint x="144" y="-403" as="targetPoint" />
          </mxGeometry>
        </mxCell>
        <mxCell id="fM1xi27GiWtBx4axmUrS-15" value="Label" style="edgeLabel;resizable=0;html=1;;align=center;verticalAlign=middle;sketch=1;hachureGap=4;jiggle=2;curveFitting=1;fontFamily=Architects Daughter;fontSource=https%3A%2F%2Ffonts.googleapis.com%2Fcss%3Ffamily%3DArchitects%2BDaughter;" connectable="0" vertex="1" parent="fM1xi27GiWtBx4axmUrS-14">
          <mxGeometry relative="1" as="geometry" />
        </mxCell>
        <mxCell id="fM1xi27GiWtBx4axmUrS-16" value="请求" style="edgeLabel;html=1;align=center;verticalAlign=middle;resizable=0;points=[];sketch=1;hachureGap=4;jiggle=2;curveFitting=1;fontFamily=Architects Daughter;fontSource=https%3A%2F%2Ffonts.googleapis.com%2Fcss%3Ffamily%3DArchitects%2BDaughter;" vertex="1" connectable="0" parent="fM1xi27GiWtBx4axmUrS-14">
          <mxGeometry x="0.1001" y="3" relative="1" as="geometry">
            <mxPoint as="offset" />
          </mxGeometry>
        </mxCell>
        <mxCell id="fM1xi27GiWtBx4axmUrS-17" value="" style="shape=partialRectangle;whiteSpace=wrap;html=1;top=0;bottom=0;fillColor=none;sketch=1;hachureGap=4;jiggle=2;curveFitting=1;fontFamily=Architects Daughter;fontSource=https%3A%2F%2Ffonts.googleapis.com%2Fcss%3Ffamily%3DArchitects%2BDaughter;" vertex="1" parent="1">
          <mxGeometry x="231" y="-431" width="42" height="62" as="geometry" />
        </mxCell>
        <mxCell id="fM1xi27GiWtBx4axmUrS-18" value="SpringSecurity的过滤链" style="text;html=1;align=center;verticalAlign=middle;whiteSpace=wrap;rounded=0;fontFamily=Architects Daughter;fontSource=https%3A%2F%2Ffonts.googleapis.com%2Fcss%3Ffamily%3DArchitects%2BDaughter;" vertex="1" parent="1">
          <mxGeometry x="187" y="-476" width="156" height="32" as="geometry" />
        </mxCell>
      </root>
    </mxGraphModel>
  </diagram>
</mxfile>
